# xmcd
#
# Track frame offsets:
#	150
#	15612
#	27829
#	42944
#	52441
#	63790
#	79689
#	87784
#	101323
#	117444
#	130573
#
# Disc length: 1829 seconds
#
# Revision: 1
# Processed by: cddbd v1.5.1PL0 Copyright (c) Steve Scherf et al.
# Submitted via: audiograbber 1.83.01
#
DISCID=8207230b
DTITLE=Homer Henderson - Greatest Flops and Golden Filler
DYEAR=1998
DGENRE=Country
TTITLE0=Pickin' Up Beer Cans On The Highway
TTITLE1=I Want A Date With A Cowboy Cheerleader
TTITLE2=Lee Harvey Was A Friend Of Mine
TTITLE3=Hawaiian Ungawa (Traditional)
TTITLE4=Lord Help Me Tonight
TTITLE5=Nightclub Dancer
TTITLE6=Hillbilly Pecker
TTITLE7=Just One More Glass
TTITLE8=How Many More Times
TTITLE9=The Planets
TTITLE10=The Saints (Traditional)
EXTD=
EXTT0=
EXTT1=
EXTT2=
EXTT3=
EXTT4=
EXTT5=
EXTT6=
EXTT7=
EXTT8=
EXTT9=
EXTT10=
PLAYORDER=
